<?xml version="1.0" standalone="no"?>
<!DOCTYPE svg PUBLIC "-//W3C//DTD SVG 20010904//EN"
 "http://www.w3.org/TR/2001/REC-SVG-20010904/DTD/svg10.dtd">
<svg version="1.0" xmlns="http://www.w3.org/2000/svg"
 width="832.000000pt" height="832.000000pt" viewBox="0 0 832.000000 832.000000"
 preserveAspectRatio="xMidYMid meet">

<g transform="translate(0.000000,832.000000) scale(0.100000,-0.100000)"
fill="#000000" stroke="none">
<path d="M0 4160 l0 -4160 4160 0 4160 0 0 4160 0 4160 -4160 0 -4160 0 0
-4160z m4060 3037 c140 -85 417 -252 615 -372 198 -120 497 -301 665 -402 168
-101 312 -191 320 -199 13 -12 16 -86 20 -497 l5 -482 35 -3 c76 -6 250 -45
350 -78 230 -76 431 -199 614 -375 259 -249 413 -523 487 -869 20 -90 23 -136
23 -315 1 -184 -2 -224 -23 -320 -42 -200 -120 -386 -229 -550 -77 -117 -106
-153 -205 -254 -482 -491 -1203 -622 -1815 -331 -172 82 -295 168 -460 323
l-83 77 -429 0 -430 0 -530 -425 c-292 -233 -539 -429 -549 -435 -32 -17 -96
-12 -122 9 l-24 19 -5 414 -5 413 -150 5 c-162 5 -190 14 -213 66 -9 18 -12
481 -12 1804 l0 1779 23 25 c12 13 245 159 517 324 272 165 677 413 900 550
235 146 416 251 430 251 17 1 119 -55 280 -152z"/>
<path d="M3754 6946 c-11 -8 -333 -206 -715 -440 -382 -233 -714 -437 -739
-453 l-45 -28 0 -1565 0 -1565 167 -5 c232 -7 212 22 216 -318 2 -147 6 -270
10 -274 4 -4 170 122 367 280 198 159 369 292 380 297 11 4 56 11 100 14 l80
6 3 514 c2 461 4 517 19 533 14 16 35 18 198 18 141 0 186 -3 201 -14 18 -14
19 -34 24 -533 l5 -518 245 -5 c283 -6 279 -5 373 -112 69 -80 215 -201 313
-260 441 -261 993 -230 1402 77 90 68 239 231 301 329 241 385 262 839 60
1251 -156 317 -442 557 -765 642 -134 35 -313 36 -459 3 -55 -12 -111 -23
-125 -24 l-25 -1 -3 609 c-1 423 -6 613 -13 622 -6 8 -79 55 -163 105 -83 51
-212 129 -286 174 -711 433 -1081 655 -1092 655 -7 0 -23 -6 -34 -14z m-594
-1176 c19 -19 20 -33 20 -249 l0 -230 -26 -20 c-25 -19 -40 -21 -201 -21 -171
0 -174 0 -198 25 l-25 24 0 223 c0 186 3 227 16 246 15 21 20 22 205 22 176 0
190 -1 209 -20z m840 0 c19 -19 20 -33 20 -249 l0 -230 -27 -21 c-26 -20 -36
-21 -206 -18 -163 3 -180 5 -193 22 -11 16 -14 67 -14 250 0 199 2 232 17 248
14 16 35 18 200 18 170 0 184 -1 203 -20z m844 -2 c13 -19 16 -60 16 -249 l0
-228 -26 -20 c-25 -19 -40 -21 -191 -21 -159 0 -197 6 -215 34 -4 6 -8 114 -8
240 0 200 2 232 17 248 14 16 35 18 204 18 183 0 188 -1 203 -22z m-1684 -908
c19 -19 20 -33 20 -250 0 -217 -1 -231 -20 -250 -19 -19 -33 -20 -202 -20
-248 0 -228 -24 -228 272 0 215 1 229 20 248 19 19 33 20 205 20 172 0 186 -1
205 -20z m840 0 c19 -19 20 -33 20 -250 0 -217 -1 -231 -20 -250 -19 -19 -33
-20 -204 -20 -180 0 -185 1 -200 22 -24 34 -24 473 1 500 14 16 35 18 200 18
170 0 184 -1 203 -20z m840 0 c19 -19 20 -33 20 -250 0 -217 -1 -231 -20 -250
-19 -19 -33 -20 -204 -20 -180 0 -185 1 -200 22 -24 34 -24 473 1 500 14 16
35 18 200 18 170 0 184 -1 203 -20z m938 -363 c7 -8 13 -68 14 -142 l3 -129
102 -58 103 -59 57 39 c115 77 150 94 172 83 30 -17 214 -317 207 -339 -4 -10
-51 -49 -105 -85 -54 -37 -101 -73 -103 -80 -2 -6 -1 -70 2 -141 l5 -129 85
-58 c79 -54 120 -91 120 -108 0 -12 -191 -315 -204 -323 -25 -17 -60 -5 -147
52 l-93 59 -33 -20 c-18 -12 -64 -37 -101 -58 l-67 -36 -5 -138 c-4 -108 -8
-140 -20 -147 -20 -13 -370 -13 -390 0 -12 7 -16 39 -20 147 l-5 138 -45 23
c-25 14 -71 40 -103 59 l-58 35 -95 -61 c-100 -64 -131 -73 -156 -43 -29 34
-188 299 -188 314 0 19 39 54 133 118 l78 53 -3 135 -3 136 -100 71 c-55 39
-101 78 -103 87 -2 9 40 85 93 170 87 139 117 178 135 178 4 0 53 -29 109 -65
57 -36 105 -65 107 -65 2 0 29 16 60 36 31 20 76 45 100 56 l44 19 0 132 c0
90 4 137 12 145 18 18 392 17 406 -1z m-2618 -557 c19 -19 20 -33 20 -250 0
-217 -1 -231 -20 -250 -19 -19 -33 -20 -202 -20 -147 1 -187 4 -203 16 -19 14
-20 28 -23 249 -3 225 -2 235 17 254 20 20 33 21 206 21 172 0 186 -1 205 -20z"/>
<path d="M5484 3899 c-18 -5 -53 -24 -80 -41 -206 -139 -186 -436 38 -547 153
-77 341 -6 415 156 94 204 -62 446 -285 442 -31 0 -71 -5 -88 -10z"/>
</g>
</svg>
