<?xml version="1.0" standalone="no"?>
<!DOCTYPE svg PUBLIC "-//W3C//DTD SVG 20010904//EN"
 "http://www.w3.org/TR/2001/REC-SVG-20010904/DTD/svg10.dtd">
<svg version="1.0" xmlns="http://www.w3.org/2000/svg"
 width="694.000000pt" height="694.000000pt" viewBox="0 0 694.000000 694.000000"
 preserveAspectRatio="xMidYMid meet">

<style>
  .logo-primary { 
    fill: oklch(0.6171 0.1375 39.0427); /* Light mode primary */
  }
  .logo-secondary { 
    fill: oklch(0.5583 0.1276 42.9956); /* Chart-1 color for accent */
  }
  
  @media (prefers-color-scheme: dark) {
    .logo-primary { 
      fill: oklch(0.6724 0.1308 38.7559); /* Dark mode primary */
    }
    .logo-secondary { 
      fill: oklch(0.5608 0.1348 42.0584); /* Chart-5 color for accent */
    }
  }
  
  /* Support for explicit dark class */
  :global(.dark) .logo-primary { 
    fill: oklch(0.6724 0.1308 38.7559);
  }
  :global(.dark) .logo-secondary { 
    fill: oklch(0.5608 0.1348 42.0584);
  }
</style>

<g transform="translate(0.000000,694.000000) scale(0.100000,-0.100000)">
<!-- Main building structure -->
<path class="logo-primary" d="M1954 5846 c-490 -327 -901 -606 -913 -621 l-21 -28 0 -1784 c0
-1259 3 -1790 11 -1805 20 -38 68 -48 233 -48 l155 0 3 -366 3 -366 33 -29
c35 -32 94 -39 135 -17 12 6 244 186 515 400 l492 388 448 0 448 0 54 -56 c80
-82 223 -200 315 -260 642 -417 1461 -332 2024 211 310 299 481 660 511 1081
29 413 -84 810 -318 1119 -240 315 -567 539 -933 639 -99 27 -275 56 -346 56
l-43 0 0 415 c0 273 -4 422 -11 437 -6 13 -20 30 -32 39 -23 16 -1635 1082
-1741 1151 -41 26 -70 38 -95 38 -31 0 -162 -84 -927 -594z m1253 6 c180 -119
529 -350 775 -512 l448 -295 0 -523 c0 -494 1 -523 18 -518 47 14 248 28 333
22 346 -22 650 -158 888 -397 196 -197 317 -425 378 -709 24 -115 24 -369 0
-493 -123 -618 -623 -1063 -1240 -1104 -379 -25 -792 159 -1057 471 -55 65
-82 89 -109 96 -20 5 -145 10 -278 10 l-243 0 0 519 c0 496 -1 520 -19 542
-19 24 -22 24 -206 24 -184 0 -187 0 -206 -24 -18 -22 -19 -46 -19 -542 l0
-519 -80 0 c-47 0 -95 -6 -115 -14 -18 -8 -187 -138 -375 -290 -187 -152 -343
-276 -345 -276 -3 0 -5 115 -5 256 l0 256 -29 29 -29 29 -166 0 -166 0 2 1582
3 1582 755 507 c415 279 756 507 757 508 1 1 149 -97 330 -217z"/>

<!-- Window elements -->
<path class="logo-secondary" d="M1850 4830 c-19 -19 -20 -33 -20 -264 0 -225 1 -246 19 -267 19 -24
22 -24 206 -24 184 0 187 0 206 24 18 21 19 42 19 261 0 225 -1 239 -21 264
l-20 26 -185 0 c-171 0 -185 -1 -204 -20z"/>
<path class="logo-secondary" d="M2692 4827 c-21 -23 -22 -31 -22 -265 0 -226 1 -243 19 -261 28 -28
67 -33 240 -29 207 4 191 -20 191 292 0 312 21 286 -226 286 -176 0 -181 -1
-202 -23z"/>
<path class="logo-secondary" d="M3535 4825 l-25 -24 0 -239 c0 -221 1 -242 19 -263 19 -24 22 -24
206 -24 184 0 187 0 206 24 18 21 19 42 19 266 l0 244 -26 20 c-25 19 -40 21
-201 21 -171 0 -174 0 -198 -25z"/>
<path class="logo-secondary" d="M1847 3892 c-15 -16 -17 -50 -17 -264 0 -236 1 -246 21 -264 19 -17
39 -19 193 -20 177 -2 216 5 230 41 3 9 6 119 6 244 0 216 -1 230 -21 255
l-20 26 -188 0 c-169 0 -190 -2 -204 -18z"/>
<path class="logo-secondary" d="M2686 3888 c-13 -19 -16 -61 -16 -260 0 -310 -17 -291 249 -286 218
4 201 -21 201 289 0 226 -1 240 -20 259 -19 19 -33 20 -209 20 -185 0 -190 -1
-205 -22z"/>
<path class="logo-secondary" d="M3527 3892 c-15 -16 -17 -49 -17 -261 l0 -242 25 -24 c24 -25 27 -25
200 -25 173 0 176 0 200 25 l25 24 0 244 c0 224 -2 245 -18 260 -16 15 -46 17
-209 17 -171 0 -192 -2 -206 -18z"/>

<!-- Central gear/clock element -->
<path class="logo-primary" d="M4532 3587 c-20 -21 -22 -34 -22 -133 0 -60 -4 -113 -8 -119 -4 -5
-34 -23 -67 -40 -33 -16 -82 -44 -108 -62 l-48 -32 -97 59 c-53 33 -104 60
-113 60 -9 0 -26 -8 -38 -17 -28 -24 -211 -312 -211 -333 0 -30 35 -63 124
-120 l86 -55 0 -112 c0 -61 3 -118 6 -126 4 -11 -24 -36 -99 -86 -104 -69
-117 -83 -117 -123 0 -23 170 -292 202 -320 32 -29 62 -21 157 37 l89 56 89
-50 c48 -28 100 -56 114 -64 26 -14 27 -17 30 -132 4 -114 5 -118 32 -141 27
-23 33 -24 206 -24 234 0 224 -7 231 162 l5 123 75 40 c41 22 89 49 106 59
l31 19 93 -57 c52 -31 104 -56 116 -56 35 0 64 33 158 182 118 187 117 191
-35 287 l-85 53 3 136 2 135 90 58 c89 57 111 80 111 118 0 22 -181 308 -207
329 -30 22 -64 13 -153 -43 l-89 -54 -53 35 c-29 20 -79 49 -110 65 l-58 29 0
114 c0 99 -3 117 -21 140 l-20 26 -188 0 c-183 0 -188 -1 -209 -23z m325 -608
c79 -29 172 -123 199 -199 56 -163 -14 -337 -168 -421 -59 -32 -69 -34 -158
-34 -89 0 -99 2 -158 34 -74 40 -115 84 -151 161 -52 112 -37 247 38 346 37
49 119 107 176 123 57 17 161 12 222 -10z"/>

<!-- Bottom window -->
<path class="logo-secondary" d="M1863 2978 c-37 -18 -43 -60 -43 -278 0 -214 7 -262 40 -280 10 -6
98 -10 195 -10 173 0 176 0 200 25 l25 24 0 239 c0 313 20 286 -217 289 -113
2 -186 -2 -200 -9z"/>
</g>
</svg>
